<?xml version="1.0" encoding="UTF-8"?>
<svg width="205px" height="227px" viewBox="0 0 205 227">
    <defs></defs>
    <g id="Page-1" stroke="none" stroke-width="1" fill="none" fill-rule="evenodd">
        <path d="M14,19 L174,19 C180.627417,19 186,24.372583 186,31 L186,213 C186,219.627417 180.627417,225 174,225 L14,225 C7.372583,225 2,219.627417 2,213 L2,31 C2,24.372583 7.372583,19 14,19 Z" id="Rectangle" stroke-opacity="0.510444973" stroke="#979797" stroke-width="4" fill-opacity="0" fill="#D8D8D8" stroke-dasharray="8,4"></path>
        <path d="M21,17 L17,17 L17,14 C17,12.0094545 17.4168865,10.0738595 18.2128266,8.29283582 L21.8647365,9.92487567 C21.297173,11.1948756 21,12.5746438 21,14 L21,17 Z M23.7123949,7.15226068 L20.7979967,4.41250099 C22.9510734,2.12218236 25.8148592,0.608815023 28.9546039,0.148613525 L29.5346974,4.10632645 C27.2956243,4.43451389 25.2520948,5.51441684 23.7123949,7.15226068 Z M33.2690175,4 L33.2690175,0 L41.2690175,0 L41.2690175,4 L33.2690175,4 Z M45.2690175,4 L45.2690175,0 L53.2690175,0 L53.2690175,4 L45.2690175,4 Z M57.2690175,4 L57.2690175,0 L65.2690175,0 L65.2690175,4 L57.2690175,4 Z M69.2690175,4 L69.2690175,0 L77.2690175,0 L77.2690175,4 L69.2690175,4 Z M81.2690175,4 L81.2690175,0 L89.2690175,0 L89.2690175,4 L81.2690175,4 Z M93.2690175,4 L93.2690175,0 L101.269017,0 L101.269017,4 L93.2690175,4 Z M105.269017,4 L105.269017,0 L113.269017,0 L113.269017,4 L105.269017,4 Z M117.269017,4 L117.269017,0 L125.269017,0 L125.269017,4 L117.269017,4 Z M129.269017,4 L129.269017,0 L137.269017,0 L137.269017,4 L129.269017,4 Z M141.269017,4 L141.269017,0 L149.269017,0 L149.269017,4 L141.269017,4 Z M153.269017,4 L153.269017,0 L161.269017,0 L161.269017,4 L153.269017,4 Z M165.269017,4 L165.269017,0 L173.269017,0 L173.269017,4 L165.269017,4 Z M177.269017,4 L177.269017,0 L185.269017,0 L185.269017,4 L177.269017,4 Z M189.269017,4 L189.269017,0 L191,0 C193.51448,0 195.936485,0.665606822 198.062021,1.90941444 L196.041798,5.36176132 C194.525039,4.4741942 192.799545,4 191,4 L189.269017,4 Z M198.594242,7.49370833 L201.630434,4.88956947 C203.672579,7.27052729 204.868066,10.2698104 204.989684,13.4582683 L200.99259,13.6107299 C200.905702,11.3327661 200.053755,9.19536885 198.594242,7.49370833 Z M201,17.538035 L205,17.538035 L205,25.538035 L201,25.538035 L201,17.538035 Z M201,29.538035 L205,29.538035 L205,37.538035 L201,37.538035 L201,29.538035 Z M201,41.538035 L205,41.538035 L205,49.538035 L201,49.538035 L201,41.538035 Z M201,53.538035 L205,53.538035 L205,61.538035 L201,61.538035 L201,53.538035 Z M201,65.538035 L205,65.538035 L205,73.538035 L201,73.538035 L201,65.538035 Z M201,77.538035 L205,77.538035 L205,85.538035 L201,85.538035 L201,77.538035 Z M201,89.538035 L205,89.538035 L205,97.538035 L201,97.538035 L201,89.538035 Z M201,101.538035 L205,101.538035 L205,109.538035 L201,109.538035 L201,101.538035 Z M201,113.538035 L205,113.538035 L205,121.538035 L201,121.538035 L201,113.538035 Z M201,125.538035 L205,125.538035 L205,133.538035 L201,133.538035 L201,125.538035 Z M201,137.538035 L205,137.538035 L205,145.538035 L201,145.538035 L201,137.538035 Z M201,149.538035 L205,149.538035 L205,157.538035 L201,157.538035 L201,149.538035 Z M201,161.538035 L205,161.538035 L205,169.538035 L201,169.538035 L201,161.538035 Z M201,173.538035 L205,173.538035 L205,181.538035 L201,181.538035 L201,173.538035 Z M201,185.538035 L205,185.538035 L205,193.538035 L201,193.538035 L201,185.538035 Z M200.918869,197.281534 L204.886665,197.788089 C204.484462,200.938506 203.024559,203.82819 200.774884,206.022565 L197.98187,203.159163 C199.590519,201.590057 200.631995,199.528592 200.918869,197.281534 Z M195.219185,205.0695 L196.90921,208.69494 C195.073724,209.550566 193.066721,210 191,210 L188.192948,210 L188.192948,206 L191,206 C192.479768,206 193.91026,205.679665 195.219185,205.0695 Z" id="Rectangle" fill-opacity="0.510444973" fill="#979797" fill-rule="nonzero"></path>
        <path d="M8,178 L188,178" id="Line" stroke-opacity="0.500198143" stroke="#979797" stroke-width="4" stroke-linecap="square" stroke-dasharray="4,8"></path>
    </g>
</svg>