<?xml version="1.0" encoding="UTF-8"?>
<svg width="668px" height="725px" viewBox="0 0 668 725" version="1.1" xmlns="http://www.w3.org/2000/svg" xmlns:xlink="http://www.w3.org/1999/xlink">
    <!-- Generator: Sketch 49.3 (51167) - http://www.bohemiancoding.com/sketch -->
    <title>Untitled 2</title>
    <desc>Created with Sketch.</desc>
    <defs></defs>
    <g id="Page-1" stroke="none" stroke-width="1" fill="none" fill-rule="evenodd">
        <polygon id="Shape" fill-opacity="0" fill="#FFFFFF" fill-rule="nonzero" transform="translate(9.175132, 339.175132) rotate(9.000000) translate(-9.175132, -339.175132) " points="-16.3248685 313.675132 34.6751315 313.675132 34.6751315 364.675132 -16.3248685 364.675132"></polygon>
        <path d="M-2.54939151,325.444321 C-2.67664356,325.444321 -2.7990013,325.393938 -2.89688749,325.298212 C-3.08776556,325.10172 -3.08776556,324.78431 -2.89688749,324.587818 C-0.42036688,322.038462 2.87350341,320.632789 6.37782902,320.632789 C6.64701604,320.632789 6.86725997,320.85951 6.86725997,321.136614 C6.86725997,321.413718 6.64701604,321.64044 6.37782902,321.64044 C3.13779613,321.64044 0.0886413077,322.940309 -2.20189554,325.30325 C-2.29978173,325.393938 -2.42213947,325.444321 -2.54939151,325.444321 Z M-4.54137548,328.09948 C-4.62457874,328.09948 -4.71267631,328.079327 -4.78609095,328.028945 C-5.02101781,327.887874 -5.09932676,327.58054 -4.9622861,327.338704 C-4.72246493,326.920529 -4.45327791,326.497316 -4.16451365,326.094256 C-4.00300143,325.872572 -3.69955425,325.82219 -3.47931032,325.988452 C-3.2639607,326.154715 -3.2150176,326.467086 -3.37652982,326.693808 C-3.64571684,327.071677 -3.89532663,327.459622 -4.11557055,327.847568 C-4.20856243,328.008792 -4.37496896,328.09948 -4.54137548,328.09948 Z M6.37782902,347.632789 C6.10864199,347.632789 5.88839807,347.406068 5.88839807,347.128964 C5.88839807,346.85186 6.10864199,346.625138 6.37782902,346.625138 C9.6178619,346.625138 12.6670167,345.325269 14.9575536,342.962328 C15.1484316,342.765836 15.4567731,342.765836 15.6476512,342.962328 C15.8385293,343.15882 15.8385293,343.47623 15.6476512,343.672722 C13.1711306,346.227116 9.87726031,347.632789 6.37782902,347.632789 Z M16.641196,342.20659 C16.5433098,342.20659 16.4454237,342.176361 16.3573261,342.110863 C16.1370822,341.949639 16.0881391,341.637267 16.244757,341.410546 C16.5433098,340.977256 16.8173912,340.53389 17.0474237,340.095562 C17.1746758,339.848687 17.4732287,339.757999 17.7130498,339.894032 C17.952871,340.025026 18.0409686,340.33236 17.9088222,340.579234 C17.6592124,341.05283 17.3704482,341.526426 17.0474237,341.994983 C16.9446432,342.131016 16.7929196,342.20659 16.641196,342.20659 Z" id="Shape" fill="#FFAD1F" fill-rule="nonzero" transform="translate(6.470281, 334.132789) rotate(9.000000) translate(-6.470281, -334.132789) "></path>
        <path d="M30.4477504,354.905482 L23.8560906,348.29261 C23.6664744,348.102383 23.4169793,347.997258 23.1525145,347.997258 C22.8880498,347.997258 22.6335648,348.102383 22.4489384,348.29261 L21.5008572,349.243742 L17.8831787,345.614422 C20.5877052,342.575804 22.064716,338.701192 22.064716,334.596305 C22.064716,330.171037 20.3481899,326.011084 17.2295016,322.877354 C14.1108132,319.743623 9.95921525,318.026579 5.54315252,318.026579 C1.12708979,318.026579 -3.01452836,319.748629 -6.13820663,322.877354 C-9.2618849,326.006078 -10.9734211,330.166031 -10.9734211,334.596305 C-10.9734211,339.026579 -9.256895,343.181525 -6.13820663,346.315256 C-3.01951827,349.448987 1.12708979,351.166031 5.54315252,351.166031 C9.60493225,351.166031 13.4471563,349.70429 16.4610568,347.026102 L20.0837252,350.660429 L19.33524,351.411323 C18.9460277,351.801787 18.9460277,352.437544 19.33524,352.828009 L25.9268997,359.440882 C26.316112,359.831346 26.8250819,360.026579 27.3390418,360.026579 C27.8530016,360.026579 28.3619716,359.831346 28.7511839,359.440882 L30.4427605,357.743861 C30.821993,357.368414 31.0265789,356.862813 31.0265789,356.327175 C31.0265789,355.791537 30.8269829,355.280929 30.4477504,354.905482 Z M5.54814242,349.158641 C1.67098904,349.158641 -1.97662888,347.641835 -4.72107464,344.893563 C-7.4655204,342.140286 -8.97247062,338.485935 -8.97247062,334.591299 C-8.97247062,330.696662 -7.4605305,327.042312 -4.72107464,324.289034 C-1.97662888,321.535757 1.66599914,320.023957 5.54814242,320.023957 C9.4302857,320.023957 13.0729137,321.540762 15.8173595,324.289034 C18.5618052,327.042312 20.0687555,330.696662 20.0687555,334.591299 C20.0687555,338.485935 18.5568153,342.140286 15.8173595,344.893563 C13.0729137,347.641835 9.4252958,349.158641 5.54814242,349.158641 Z M27.3440317,358.019189 L21.4559481,352.112157 L22.1994434,351.366269 L23.1425347,350.420143 L29.0306184,356.327175 L27.3440317,358.019189 Z" id="Shape" fill="#FFAD1F" fill-rule="nonzero" transform="translate(10.026579, 339.026579) rotate(9.000000) translate(-10.026579, -339.026579) "></path>
        <polygon id="Shape" fill-opacity="0" fill="#FFFFFF" fill-rule="nonzero" transform="translate(500.887614, 523.887614) rotate(-25.000000) translate(-500.887614, -523.887614) " points="475.387614 498.387614 526.387614 498.387614 526.387614 549.387614 475.387614 549.387614"></polygon>
        <path d="M488.617625,524.151241 C488.547616,524.151241 488.482275,524.136283 488.416934,524.10138 C488.183572,523.981712 488.085561,523.682544 488.197574,523.433237 C488.398265,522.984484 488.636294,522.540718 488.916328,522.072021 C489.056345,521.842658 489.345713,521.772852 489.560406,521.922436 C489.775098,522.072021 489.840439,522.381161 489.700422,522.610524 C489.439058,523.044318 489.224365,523.453181 489.037676,523.862045 C488.958333,524.046532 488.790312,524.151241 488.617625,524.151241 Z M490.549858,521.154571 C490.437845,521.154571 490.321164,521.109695 490.232487,521.019945 C490.045798,520.830471 490.036463,520.516345 490.209151,520.316899 C491.399294,518.955683 492.888141,517.87369 494.512337,517.185603 C494.750366,517.08588 495.021066,517.210533 495.119077,517.464827 C495.212422,517.71912 495.095741,518.008316 494.857713,518.113025 C493.359531,518.746265 491.992033,519.743493 490.890566,520.995014 C490.797222,521.099723 490.675874,521.154571 490.549858,521.154571 Z" id="Shape" fill="#1890FF" fill-rule="nonzero" transform="translate(491.651241, 520.651241) rotate(-25.000000) translate(-491.651241, -520.651241) "></path>
        <path d="M519.772152,505.766139 C516.928468,502.922626 512.298627,502.922626 509.449883,505.766139 C509.257605,505.958405 509.151347,506.211386 509.151347,506.479547 C509.151347,506.747707 509.257605,507.005748 509.449883,507.192955 L513.179056,510.921903 L511.615536,512.485329 C508.90341,510.066825 505.503133,508.650129 501.880219,508.427505 C501.905519,508.336431 501.920698,508.240298 501.920698,508.139106 L501.920698,504.9313 L503.003525,504.9313 C503.560118,504.9313 504.015512,504.475933 504.015512,503.919373 C504.015512,503.362814 503.560118,502.907447 503.003525,502.907447 L498.813898,502.907447 C498.257305,502.907447 497.80191,503.362814 497.80191,503.919373 C497.80191,504.475933 498.257305,504.9313 498.813898,504.9313 L499.896724,504.9313 L499.896724,508.144165 C499.896724,508.245358 499.911904,508.336431 499.937203,508.427505 C496.304169,508.62989 492.898833,510.026348 490.171527,512.429673 L488.638366,510.921903 L492.362479,507.198014 C492.554757,507.005748 492.661016,506.752767 492.661016,506.484606 C492.661016,506.216446 492.554757,505.958405 492.362479,505.771198 C489.518795,502.927686 484.888954,502.927686 482.04021,505.771198 C479.196526,508.614711 479.196526,513.244274 482.04021,516.092846 C482.237548,516.290172 482.495604,516.391365 482.753661,516.391365 C483.011718,516.391365 483.269774,516.290172 483.467112,516.092846 L487.201345,512.358838 L488.729445,513.861549 C486.098279,516.826493 484.656197,520.600978 484.656197,524.598087 C484.656197,528.924072 486.341156,532.986956 489.397357,536.048032 C490.262606,536.913229 491.208814,537.667115 492.215741,538.304628 L489.280978,543.389558 C489.002682,543.875282 489.16966,544.492557 489.650354,544.770837 C489.807212,544.86191 489.984309,544.907447 490.156347,544.907447 C490.505483,544.907447 490.844499,544.7253 491.031716,544.401484 L493.991779,539.276077 C496.111892,540.267765 498.439462,540.788907 500.847992,540.788907 C503.286881,540.788907 505.639751,540.252586 507.780104,539.24066 L510.760406,544.401484 C510.947624,544.7253 511.28664,544.907447 511.635775,544.907447 C511.807813,544.907447 511.979851,544.86191 512.141769,544.770837 C512.627523,544.492557 512.789441,543.870223 512.511144,543.389558 L509.551082,538.259091 C510.532709,537.631697 511.453618,536.892991 512.298627,536.048032 C515.354828,532.992015 517.039787,528.924072 517.039787,524.598087 C517.039787,520.631336 515.623005,516.887208 513.032318,513.932384 L514.600898,512.363898 L518.335131,516.097906 C518.532468,516.295232 518.790525,516.396424 519.048582,516.396424 C519.306638,516.396424 519.564695,516.295232 519.762033,516.097906 C522.620896,513.239214 522.620896,508.609652 519.772152,505.766139 Z M482.82956,513.871668 C481.448198,511.822517 481.665775,509.009362 483.477232,507.198014 C484.504399,506.170909 485.855402,505.654827 487.206405,505.654827 C488.233572,505.654827 489.265799,505.953345 490.151287,506.550382 L486.543553,510.157899 C486.523313,510.178137 486.503074,510.193316 486.482834,510.213555 C486.467654,510.228734 486.457534,510.243913 486.442354,510.259091 L482.82956,513.871668 Z M510.876785,534.606038 C508.200079,537.282583 504.642944,538.754935 500.858112,538.754935 C497.07328,538.754935 493.516145,537.282583 490.839439,534.606038 C488.162733,531.929493 486.690291,528.372572 486.690291,524.587967 C486.690291,520.803363 488.162733,517.246442 490.839439,514.569897 C493.516145,511.893352 497.07328,510.421 500.858112,510.421 C504.642944,510.421 508.200079,511.893352 510.876785,514.569897 C513.553491,517.246442 515.025932,520.803363 515.025932,524.587967 C515.025932,528.372572 513.553491,531.929493 510.876785,534.606038 Z M518.987862,513.871668 L515.324469,510.208495 L511.666135,506.550382 C513.715409,505.169102 516.528733,505.386666 518.340191,507.198014 C520.156708,509.009362 520.369225,511.817458 518.987862,513.871668 Z" id="Shape" fill="#1890FF" fill-rule="nonzero" transform="translate(500.907447, 523.907447) rotate(-25.000000) translate(-500.907447, -523.907447) "></path>
        <path d="M508.093911,516.884506 L498.214636,516.884506 C497.645673,516.884506 497.180157,517.313078 497.180157,517.836887 C497.180157,518.360697 497.645673,518.789268 498.214636,518.789268 L507.069777,518.789268 L507.111156,523.941649 C507.116328,524.465459 507.576672,524.884506 508.145635,524.884506 L508.15598,524.884506 C508.724943,524.879744 509.185287,524.451173 509.180114,523.922601 L509.12839,517.827363 C509.123218,517.308316 508.662875,516.884506 508.093911,516.884506 Z" id="Shape" fill="#1890FF" fill-rule="nonzero" transform="translate(503.180157, 520.884506) rotate(-219.000000) translate(-503.180157, -520.884506) "></path>
        <polygon id="Shape" fill-opacity="0" fill="#FFFFFF" fill-rule="nonzero" transform="translate(577.399877, 47.399877) rotate(34.000000) translate(-577.399877, -47.399877) " points="551.899877 21.8998771 602.899877 21.8998771 602.899877 72.8998771 551.899877 72.8998771"></polygon>
        <path d="M611.38823,37.3882305 C611.38823,37.9405152 611.835946,38.3882305 612.38823,38.3882305 C612.940515,38.3882305 613.38823,37.9405152 613.38823,37.3882305 C613.38823,36.8359457 612.940515,36.3882305 612.38823,36.3882305 C611.835946,36.3882305 611.38823,36.8359457 611.38823,37.3882305 Z" id="Shape" fill="#E0245E" fill-rule="nonzero" transform="translate(612.388230, 37.388230) rotate(34.000000) translate(-612.388230, -37.388230) "></path>
        <path d="M611.38823,38.3882305 C610.834384,38.3882305 610.38823,37.9420766 610.38823,37.3882305 C610.38823,36.8343843 610.834384,36.3882305 611.38823,36.3882305 C611.942077,36.3882305 612.38823,36.8343843 612.38823,37.3882305 C612.38823,37.9420766 611.942077,38.3882305 611.38823,38.3882305 Z M611.38823,36.4395125 C610.865154,36.4395125 610.439513,36.8651536 610.439513,37.3882305 C610.439513,37.9113074 610.865154,38.3369484 611.38823,38.3369484 C611.911307,38.3369484 612.336948,37.9113074 612.336948,37.3882305 C612.336948,36.8651536 611.911307,36.4395125 611.38823,36.4395125 Z" id="Shape" fill="#E0245E" fill-rule="nonzero" transform="translate(611.388230, 37.388230) rotate(34.000000) translate(-611.388230, -37.388230) "></path>
        <path d="M625.27523,67.8014031 L623.463131,64.6142193 L624.201948,64.1842024 C624.681181,63.9059562 624.840925,63.2836965 624.566365,62.8030894 L610.513865,38.1352985 C610.853321,37.4371535 611.04801,36.6530051 611.04801,35.8283845 C611.04801,33.2988736 609.265863,31.1892614 606.904644,30.7187724 L606.904644,28.325855 C606.904644,27.7693626 606.455363,27.3140506 605.906243,27.3140506 C605.357122,27.3140506 604.907841,27.7693626 604.907841,28.325855 L604.907841,30.7187724 C602.546622,31.1892614 600.764475,33.3039326 600.764475,35.8283845 C600.764475,36.6580641 600.959164,37.4422125 601.29862,38.1403576 L587.251112,62.7980304 C586.976552,63.2836965 587.141288,63.9008972 587.615529,64.1791434 L588.354346,64.6091603 L586.542247,67.7963441 C586.267687,68.2820102 586.432423,68.8992108 586.906664,69.177457 C587.061416,69.2685194 587.236136,69.3140506 587.405865,69.3140506 C587.750313,69.3140506 588.084778,69.1319259 588.269482,68.8081484 L590.08158,65.6260237 L590.820397,66.0560405 C590.97515,66.1471029 591.144878,66.1926341 591.319598,66.1926341 C591.404462,66.1926341 591.494318,66.1825161 591.579183,66.157221 C591.833775,66.0863947 592.053423,65.9194469 592.183215,65.6867319 L600.609723,50.8992108 L611.207754,50.8992108 L619.634262,65.6867319 C619.769046,65.9194469 619.983702,66.0863947 620.238295,66.157221 C620.323159,66.1825161 620.408023,66.1926341 620.497879,66.1926341 C620.672599,66.1926341 620.842327,66.1471029 620.99708,66.0560405 L621.735897,65.6260237 L623.547995,68.8081484 C623.7327,69.1319259 624.067164,69.3140506 624.411612,69.3140506 C624.581341,69.3140506 624.751069,69.2685194 624.910813,69.177457 C625.390046,68.9042699 625.54979,68.2870692 625.27523,67.8014031 Z M605.554248,33.3140506 C607.286474,33.3140506 608.699212,34.7457538 608.699212,36.5012345 C608.699212,38.2567151 607.286474,39.6884183 605.554248,39.6884183 C603.822022,39.6884183 602.409284,38.2567151 602.409284,36.5012345 C602.409284,34.7457538 603.822022,33.3140506 605.554248,33.3140506 Z M590.886918,64.2584014 L590.183045,63.8486206 C590.173061,63.8385026 590.158085,63.8334436 590.148101,63.8233255 C590.138117,63.8182665 590.123141,63.8081484 590.108165,63.8030894 L589.409284,63.3933087 L602.55823,40.3140506 C602.997527,40.6833592 603.501719,40.9767825 604.035864,41.1791434 L590.886918,64.2584014 Z M601.409284,49.5990422 L605.557641,42.3140506 L609.705999,49.5939832 L601.409284,49.5939832 L601.409284,49.5990422 Z M620.55823,64.2584014 L607.409284,41.1791434 C607.943428,40.9767825 608.442629,40.6833592 608.886918,40.3140506 L622.035864,63.3933087 L621.336983,63.8030894 C621.326999,63.8081484 621.312023,63.8132075 621.302039,63.8233255 C621.287063,63.8283845 621.277079,63.8385026 621.267095,63.8486206 L620.55823,64.2584014 Z" id="Shape" fill="#E0245E" fill-rule="nonzero" transform="translate(605.909284, 48.314051) rotate(34.000000) translate(-605.909284, -48.314051) "></path>
        <polygon id="Shape" fill-opacity="0" fill="#FFFFFF" fill-rule="nonzero" points="75 629 126 629 126 680 75 680"></polygon>
        <path d="M90.4886979,646 C90.4299904,646 90.3663906,645.990495 90.3076831,645.966733 C90.0581762,645.866931 89.9358689,645.591287 90.0337147,645.348911 C90.273437,644.764357 90.5474054,644.21307 90.8458352,643.704555 C90.9779271,643.476437 91.2763569,643.395645 91.5111869,643.528714 C91.7460169,643.657031 91.8291859,643.946931 91.6922017,644.17505 C91.4182334,644.645545 91.1638342,645.158812 90.9387887,645.705347 C90.8654044,645.885941 90.6843895,646 90.4886979,646 Z M92.5092145,642.649506 C92.4015841,642.649506 92.2939536,642.616239 92.2010001,642.544952 C91.9906315,642.378615 91.9612778,642.079209 92.1276157,641.874853 C93.5170267,640.211487 95.3076056,638.885547 97.3134453,638.039607 C97.5629522,637.935052 97.8515974,638.044359 97.9592279,638.286736 C98.0668583,638.529112 97.9543356,638.809508 97.7048287,638.914062 C95.8457577,639.69822 94.1823784,640.929111 92.8908133,642.473665 C92.7929674,642.587724 92.651091,642.649506 92.5092145,642.649506 Z" id="Shape" fill="#17BF63" fill-rule="nonzero"></path>
        <path d="M120.702883,666.454372 L118.260761,664.036941 L116.154618,661.952092 C117.418303,660.552266 118.431258,658.968773 119.173422,657.2314 C120.076055,655.121732 120.532386,652.878038 120.532386,650.569812 C120.532386,648.261587 120.076055,646.017893 119.173422,643.908225 C118.300878,641.868052 117.05725,640.041328 115.467614,638.467763 C113.877977,636.894199 112.032595,635.663146 109.971584,634.799423 C107.840368,633.905916 105.573757,633.454199 103.241956,633.454199 C100.910155,633.454199 98.6435437,633.905916 96.5123276,634.799423 C94.7622232,635.534084 93.1625575,636.536797 91.7484329,637.787706 L87.2051818,633.29039 C86.814041,632.903203 86.1771835,632.903203 85.7860426,633.29039 C85.3949018,633.677576 85.3949018,634.307994 85.7860426,634.69518 L87.5311325,636.422626 C85.8361889,638.264242 84.4972837,640.359019 83.5545341,642.66228 C82.5215211,645.17899 82,647.844618 82,650.574776 C82,653.304935 82.5215211,655.965599 83.5545341,658.487273 C84.6226494,661.098297 86.1922273,663.436306 88.2181362,665.441732 C90.2440451,667.447157 92.6109486,669.000866 95.2436272,670.058182 C97.4801504,670.956652 99.8269954,671.462973 102.234016,671.577143 L102.234016,674.01443 L97.3146678,674.01443 C96.7630589,674.01443 96.3117426,674.461183 96.3117426,675.007215 C96.3117426,675.553247 96.7630589,676 97.3146678,676 L109.159214,676 C109.710823,676 110.16214,675.553247 110.16214,675.007215 C110.16214,674.461183 109.710823,674.01443 109.159214,674.01443 L104.249896,674.01443 L104.249896,671.577143 C106.656916,671.467937 109.003761,670.956652 111.23527,670.063146 C113.562056,669.129928 115.678228,667.809524 117.538654,666.131717 L119.288759,667.864127 C119.484329,668.05772 119.740075,668.156999 119.995821,668.156999 C120.251567,668.156999 120.507313,668.05772 120.702883,667.864127 C121.099039,667.467013 121.099039,666.841558 120.702883,666.454372 Z M103.24697,635.439769 C107.328876,635.439769 111.170079,637.013333 114.053489,639.872554 C116.941914,642.731775 118.53155,646.529177 118.53155,650.569812 C118.53155,654.610447 116.941914,658.412814 114.053489,661.267071 C111.165065,664.126291 107.328876,665.699856 103.24697,665.699856 C99.1650648,665.699856 95.3238613,664.126291 92.4404513,661.267071 C89.5520267,658.40785 87.9623903,654.610447 87.9623903,650.569812 C87.9623903,646.529177 89.5520267,642.726811 92.4404513,639.872554 C95.3238613,637.013333 99.1650648,635.439769 103.24697,635.439769 Z M110.483076,668.216566 C108.176348,669.139856 105.744254,669.611429 103.24697,669.611429 C100.749687,669.611429 98.3125784,669.14482 96.010865,668.216566 C93.6239031,667.258528 91.4876724,665.853737 89.6473046,664.031977 C87.8119515,662.21518 86.3877977,660.095584 85.4199749,657.732756 C84.4872545,655.449351 84.010865,653.041847 84.010865,650.569812 C84.010865,648.097778 84.4822399,645.68531 85.4199749,643.406869 C86.2624321,641.351804 87.4508985,639.47544 88.9552863,637.827417 L90.3343084,639.192496 C89.0706226,640.592323 88.0576682,642.175815 87.3155036,643.908225 C86.4128709,646.017893 85.9565399,648.261587 85.9565399,650.569812 C85.9565399,652.878038 86.4128709,655.121732 87.3155036,657.2314 C88.1880485,659.271573 89.4316757,661.098297 91.0213122,662.671861 C92.6109486,664.245426 94.456331,665.476479 96.5173422,666.340202 C98.6485583,667.233709 100.915169,667.685426 103.24697,667.685426 C105.578771,667.685426 107.845382,667.233709 109.976598,666.340202 C111.726703,665.605541 113.326369,664.602828 114.740493,663.356883 L116.119515,664.721962 C114.449645,666.206176 112.559131,667.382626 110.483076,668.216566 Z" id="Shape" fill="#17BF63" fill-rule="nonzero"></path>
        <polygon id="Shape" fill-opacity="0" fill="#FFFFFF" fill-rule="nonzero" points="518 254 569 254 569 305 518 305"></polygon>
        <path d="M564.409549,274.109479 L549.889909,259.591834 C549.100963,258.802722 547.816397,258.802722 547.027451,259.591834 L543.19904,263.421053 L542.485954,262.707816 C542.091481,262.31326 541.449198,262.31326 541.054725,262.707816 L527.177368,276.583042 C526.985189,276.775262 526.878984,277.028183 526.878984,277.296278 C526.878984,277.564374 526.985189,277.822353 527.177368,278.009515 L527.890454,278.722751 L526.60083,280.012646 C524.279509,282.334457 523,285.420089 523,288.702999 C523,291.985909 524.279509,295.07154 526.60083,297.39841 C528.922152,299.720222 532.007133,301 535.289351,301 C538.571568,301 541.656549,299.720222 543.977871,297.39841 L545.267494,296.108515 L545.98058,296.821751 C546.172759,297.013971 546.425627,297.120198 546.693666,297.120198 C546.961705,297.120198 547.21963,297.013971 547.406752,296.821751 L561.284109,282.941467 C561.678582,282.546911 561.678582,281.904492 561.284109,281.509936 L560.571023,280.7967 L564.399434,276.967482 C565.198495,276.178369 565.198495,274.903649 564.409549,274.109479 Z M542.561814,295.971938 C538.556396,299.978201 532.042535,299.978201 528.042174,295.971938 C524.041813,291.965675 524.036756,285.45044 528.042174,281.449235 L529.331797,280.15934 L543.851437,294.682043 L542.561814,295.971938 Z M546.708838,294.671926 L529.32674,277.29122 L541.772868,264.842467 L559.154966,282.228231 L546.708838,294.671926 Z M559.154966,279.365169 L544.635326,264.847525 L548.463737,261.018307 L562.983377,275.541009 L559.154966,279.365169 Z" id="Shape" fill="#F45D22" fill-rule="nonzero"></path>
        <path d="M537.489256,273.009812 C537.359701,273.009812 537.235129,272.959975 537.135472,272.865286 C536.94114,272.670924 536.94114,272.356954 537.135472,272.162591 L541.151666,268.145772 C541.345998,267.951409 541.659919,267.951409 541.854251,268.145772 C542.048583,268.340134 542.048583,268.654104 541.854251,268.848466 L537.838057,272.865286 C537.743382,272.959975 537.61881,273.009812 537.489256,273.009812 Z M534.499533,276 C534.369978,276 534.245406,275.950164 534.145749,275.855474 C533.951417,275.661112 533.951417,275.347142 534.145749,275.15278 L535.486141,273.812179 C535.680473,273.617817 535.994394,273.617817 536.188726,273.812179 C536.383058,274.006541 536.383058,274.320511 536.188726,274.514873 L534.848334,275.855474 C534.753659,275.950164 534.629088,276 534.499533,276 Z" id="Shape" fill="#F45D22" fill-rule="nonzero"></path>
        <polygon id="Shape" fill-opacity="0" fill="#FFFFFF" fill-rule="nonzero" transform="translate(638.500000, 632.500000) rotate(-33.000000) translate(-638.500000, -632.500000) " points="613 607 664 607 664 658 613 658"></polygon>
        <path d="M624.512542,628 C624.389319,628 624.260961,627.956172 624.163409,627.868516 C623.958037,627.683463 623.942634,627.376667 624.137737,627.181875 C624.481736,626.83125 624.846273,626.485494 625.210809,626.164088 C625.416181,625.979036 625.744777,625.993645 625.934747,626.188437 C626.129851,626.383229 626.114448,626.694896 625.909076,626.875078 C625.559942,627.181875 625.215943,627.508151 624.887347,627.844167 C624.789795,627.946432 624.651169,628 624.512542,628 Z M627.587996,625.42388 C627.428832,625.42388 627.269668,625.350833 627.172117,625.219348 C627.007819,625.000208 627.059162,624.698281 627.290206,624.537577 C628.845903,623.485702 630.535092,622.643228 632.311564,622.029634 C632.578548,621.937108 632.871204,622.068593 632.968756,622.321822 C633.066308,622.575051 632.927682,622.852629 632.660697,622.945155 C630.971508,623.524661 629.364468,624.328176 627.885786,625.326484 C627.798503,625.399531 627.690682,625.42388 627.587996,625.42388 Z" id="Shape" fill="#E0245E" fill-rule="nonzero" transform="translate(628.500000, 625.000000) rotate(-33.000000) translate(-628.500000, -625.000000) "></path>
        <path d="M653.031737,610 L644.473086,610 C643.382907,610 642.49991,610.902876 642.49991,612.0176 L642.49991,612.582528 C640.08277,612.69854 637.739624,613.243293 635.514868,614.206697 C633.077996,615.260893 630.88777,616.769049 629.003388,618.695857 C627.123938,620.617622 625.644056,622.857158 624.613071,625.353939 C623.542623,627.931423 623,630.67536 623,633.5 C623,636.32464 623.542623,639.068577 624.608138,641.651105 C625.639123,644.142842 627.114072,646.382378 628.998455,648.309187 C630.882838,650.235995 633.06813,651.744151 635.509935,652.798347 C637.734691,653.761751 640.077837,654.306504 642.494977,654.422516 L642.494977,654.9824 C642.494977,656.097124 643.377974,657 644.468153,657 L653.026804,657 C654.116983,657 654.999979,656.097124 654.999979,654.9824 L654.999979,612.022644 C655.004912,610.897832 654.121916,610 653.031737,610 Z M653.031737,654.977356 L644.478019,654.977356 L644.473086,654.977356 L644.473086,653.433891 C644.473086,652.879051 644.029122,652.425091 643.486498,652.425091 C638.543693,652.425091 633.891931,650.457931 630.399409,646.881734 C626.906888,643.305538 624.978109,638.554089 624.978109,633.494956 C624.978109,628.440867 626.901955,623.684374 630.399409,620.113222 C633.896864,616.537025 638.543693,614.569865 643.486498,614.569865 C644.029122,614.569865 644.473086,614.115905 644.473086,613.561065 L644.473086,612.012556 L653.026804,612.012556 C653.026804,612.012556 653.031737,612.0176 653.031737,612.012556 L653.031737,616.133505 L648.498365,616.133505 L648.498365,618.151105 L653.031737,618.151105 L653.031737,622.776454 L648.498365,622.776454 L648.498365,624.794055 L653.031737,624.794055 L653.031737,629.419403 L648.498365,629.419403 L648.498365,631.437004 L653.031737,631.437004 L653.031737,636.062352 L648.498365,636.062352 L648.498365,638.079953 L653.031737,638.079953 L653.031737,642.710346 L648.498365,642.710346 L648.498365,644.727946 L653.031737,644.727946 L653.031737,649.353295 L648.498365,649.353295 L648.498365,651.370895 L653.031737,651.370895 L653.031737,654.977356 Z" id="Shape" fill="#E0245E" fill-rule="nonzero" transform="translate(639.000000, 633.500000) rotate(-33.000000) translate(-639.000000, -633.500000) "></path>
        <path d="M643.011125,622 C636.939431,622 632,626.935549 632,632.99753 C632,635.937121 633.147095,638.698855 635.223733,640.778801 C637.305315,642.853806 640.069221,644 643.011125,644 C643.555006,644 644,643.555356 644,643.011902 L644,622.988098 C644,622.444644 643.555006,622 643.011125,622 Z M642.02225,641.969459 C637.50309,641.47541 633.97775,637.64159 633.97775,632.99753 C633.97775,628.35841 637.50309,624.52459 642.02225,624.030541 L642.02225,641.969459 Z" id="Shape" fill="#E0245E" fill-rule="nonzero" transform="translate(638.000000, 633.000000) rotate(-33.000000) translate(-638.000000, -633.000000) "></path>
    </g>
</svg>