<?xml version="1.0" encoding="UTF-8"?>
<svg width="900px" height="900px" viewBox="0 0 900 900" version="1.1" xmlns="http://www.w3.org/2000/svg" xmlns:xlink="http://www.w3.org/1999/xlink">
    <!-- Generator: Sketch 49.3 (51167) - http://www.bohemiancoding.com/sketch -->
    <title>Untitled 2</title>
    <desc>Created with Sketch.</desc>
    <defs></defs>
    <g id="Page-1" stroke="none" stroke-width="1" fill="none" fill-rule="evenodd">
        <polygon id="Shape" fill-opacity="0" fill="#FFFFFF" fill-rule="nonzero" transform="translate(855.500000, 335.500000) rotate(-44.000000) translate(-855.500000, -335.500000) " points="753 233 958 233 958 438 753 438"></polygon>
        <path d="M816.655993,298.655993 C816.655993,300.865132 818.446854,302.655993 820.655993,302.655993 C822.865132,302.655993 824.655993,300.865132 824.655993,298.655993 C824.655993,296.446854 822.865132,294.655993 820.655993,294.655993 C818.446854,294.655993 816.655993,296.446854 816.655993,298.655993 Z" id="Shape" fill="#A0D911" fill-rule="nonzero" transform="translate(820.655993, 298.655993) rotate(-44.000000) translate(-820.655993, -298.655993) "></path>
        <path d="M821,303 C818.784615,303 817,301.215385 817,299 C817,296.784615 818.784615,295 821,295 C823.215385,295 825,296.784615 825,299 C825,301.215385 823.215385,303 821,303 Z M821,295.205128 C818.907692,295.205128 817.205128,296.907692 817.205128,299 C817.205128,301.092308 818.907692,302.794872 821,302.794872 C823.092308,302.794872 824.794872,301.092308 824.794872,299 C824.794872,296.907692 823.092308,295.205128 821,295.205128 Z" id="Shape" fill="#A0D911" fill-rule="nonzero" transform="translate(821.000000, 299.000000) rotate(-44.000000) translate(-821.000000, -299.000000) "></path>
        <path d="M932.463784,412.021441 L925.21539,399.424476 L928.170658,397.724886 C930.087589,396.625151 930.726566,394.165743 929.628324,392.266201 L873.418326,294.769694 C874.776151,292.010359 875.554905,288.911106 875.554905,285.651891 C875.554905,275.6543 868.426319,267.316309 858.981441,265.456757 L858.981441,255.999036 C858.981441,253.799566 857.184319,252 854.987836,252 C852.791353,252 850.99423,253.799566 850.99423,255.999036 L850.99423,265.456757 C841.549353,267.316309 834.420767,275.674295 834.420767,285.651891 C834.420767,288.931101 835.19952,292.030354 836.557346,294.789689 L780.367315,392.246206 C779.269074,394.165743 779.928019,396.605155 781.824981,397.70489 L784.780249,399.404481 L777.531855,412.001445 C776.433614,413.920983 777.092559,416.360395 778.989521,417.46013 C779.60853,417.820043 780.307411,418 780.986324,418 C782.364118,418 783.701976,417.280173 784.440793,416.000482 L791.689187,403.423512 L794.644455,405.123103 C795.263464,405.483016 795.942377,405.662973 796.641258,405.662973 C796.980715,405.662973 797.340139,405.622982 797.679596,405.523007 C798.697965,405.243074 799.576558,404.583233 800.095727,403.663455 L833.801758,345.217538 L876.193881,345.217538 L909.899913,403.663455 C910.439049,404.583233 911.297675,405.243074 912.316044,405.523007 C912.6555,405.622982 912.994957,405.662973 913.354381,405.662973 C914.053262,405.662973 914.732175,405.483016 915.351184,405.123103 L918.306452,403.423512 L925.554847,416.000482 C926.293664,417.280173 927.631521,418 929.009315,418 C929.688228,418 930.367141,417.820043 931.006118,417.46013 C932.923049,416.38039 933.562026,413.940978 932.463784,412.021441 Z M854.987836,273.054927 C861.916741,273.054927 867.567693,278.713563 867.567693,285.651891 C867.567693,292.590219 861.916741,298.248856 854.987836,298.248856 C848.05893,298.248856 842.407978,292.590219 842.407978,285.651891 C842.407978,278.713563 848.05893,273.054927 854.987836,273.054927 Z M795.183592,396.225247 L792.3681,394.605637 C792.328164,394.565647 792.26826,394.545652 792.228324,394.505661 C792.188388,394.485666 792.128484,394.445676 792.06858,394.425681 L789.273056,392.806071 L841.868841,301.588051 C843.626028,303.047699 845.642799,304.20742 847.779378,305.007227 L795.183592,396.225247 Z M838.414373,337.23946 L855.007804,308.446398 L871.601235,337.219465 L838.414373,337.219465 L838.414373,337.23946 Z M914.812047,396.225247 L862.216262,305.007227 C864.352841,304.20742 866.349644,303.047699 868.126798,301.588051 L920.722584,392.806071 L917.92706,394.425681 C917.887124,394.445676 917.82722,394.465671 917.787284,394.505661 C917.72738,394.525656 917.687444,394.565647 917.647507,394.605637 L914.812047,396.225247 Z" id="Shape" fill="#A0D911" fill-rule="nonzero" transform="translate(855.000000, 335.000000) rotate(-44.000000) translate(-855.000000, -335.000000) "></path>
        <polygon id="Shape" fill-opacity="0" fill="#FFFFFF" fill-rule="nonzero" points="-7 582 198 582 198 787 -7 787"></polygon>
        <path d="M37.5166658,637.647443 C37.0998429,637.647443 36.6830199,637.507516 36.3257432,637.24765 C35.4523999,636.587992 35.2737615,635.328646 35.9287689,634.449102 C40.2954852,628.612129 45.7141831,623.834606 52.0459217,620.256462 C52.9986598,619.716742 54.2094311,620.056565 54.7453463,621.016068 C55.2812615,621.97557 54.9438334,623.194938 53.9910953,623.734658 C48.1555745,627.032948 43.1338508,631.450657 39.1045626,636.847858 C38.7075884,637.387578 38.1121271,637.647443 37.5166658,637.647443 Z M29.9741559,652 C29.75582,652 29.5374842,651.960021 29.3389971,651.900052 C28.3068642,651.540238 27.7511003,650.400829 28.1083771,649.361368 C28.9618716,646.842675 29.9940046,644.403939 31.1650785,642.125121 C31.6612962,641.145629 32.8720676,640.765826 33.8446544,641.265567 C34.8172412,641.765308 35.1943667,642.984675 34.6981489,643.964167 C33.6263186,646.063079 32.6735805,648.321907 31.879632,650.640705 C31.5620527,651.48027 30.8078017,652 29.9741559,652 Z" id="Shape" fill="#EB2F96" fill-rule="nonzero"></path>
        <path d="M176.816793,760.160824 L126.847447,710.22684 C137.553735,698.208288 143.397167,682.890134 143.397167,666.65209 C143.397167,649.114203 136.573159,632.636188 124.145861,620.237682 C111.718563,607.839176 95.2288785,601 77.6985834,601 C60.1682882,601 43.6585924,607.819178 31.2513059,620.237682 C18.8440193,632.656186 12,649.134201 12,666.65209 C12,684.189977 18.8240076,700.667992 31.2513059,713.066498 C43.6786042,725.465004 60.1682882,732.30418 77.6985834,732.30418 C93.8680794,732.30418 109.157058,726.504879 121.16411,715.866161 L171.153467,765.820142 C171.933926,766.600048 172.954525,767 173.975124,767 C174.995724,767 176.016323,766.600048 176.796782,765.820142 C178.397722,764.26033 178.397722,761.740634 176.816793,760.160824 Z M36.8946201,707.427177 C25.988215,696.528491 20.004701,682.050235 20.004701,666.65209 C20.004701,651.253945 26.0082267,636.77569 36.8946201,625.877003 C47.7810134,614.978316 62.289534,608.999036 77.6985834,608.999036 C93.1076328,608.999036 107.596142,614.998313 118.502547,625.877003 C129.408952,636.77569 135.392466,651.253945 135.392466,666.65209 C135.392466,681.710276 129.649093,695.888568 119.202958,706.687267 C115.140572,709.06698 110.717975,710.926756 106.055237,712.226599 C94.1682556,715.506204 81.7209456,713.96639 71.014658,707.887122 C60.2883587,701.807854 52.583834,691.929045 49.3019066,680.050476 C43.6385807,659.532948 55.7256791,638.235514 76.2377254,632.576196 C84.5426027,630.29647 93.2277033,631.356343 100.712099,635.595832 C108.196494,639.835321 113.579656,646.73449 115.881007,655.03349 C119.803311,669.271774 111.438398,684.049994 97.210042,687.969522 C91.5066926,689.549331 85.5231786,688.809421 80.3601464,685.889772 C75.1971143,682.970124 71.4949401,678.230695 69.9340234,672.531382 C67.2524486,662.852548 72.955798,652.79376 82.661498,650.094085 C86.5037544,649.034213 90.5261167,649.534153 93.9881499,651.493916 C97.450183,653.45368 99.9516521,656.653295 101.012275,660.472835 C102.773309,666.892061 99.0110997,673.551259 92.6073389,675.311047 C90.1258816,675.990965 87.5043421,675.671003 85.2630258,674.391158 C83.0217095,673.111312 81.4007576,671.05156 80.720358,668.571859 C80.1800407,666.612095 80.4401934,664.552343 81.4407811,662.792555 C82.4413687,661.032767 84.0823324,659.752921 86.0434841,659.212986 C89.1653175,658.35309 92.3872097,660.192868 93.2677268,663.312492 C93.8680794,665.432237 96.0693721,666.692085 98.1906179,666.092158 C100.311864,665.49223 101.572604,663.292495 100.972251,661.17275 C98.9310527,653.793639 91.2665515,649.47416 83.9022266,651.513914 C79.8798644,652.613781 76.5379017,655.233466 74.4766912,658.85303 C72.4154807,662.472594 71.8951751,666.692085 72.9958215,670.711601 C74.2565619,675.251054 77.1982895,679.030599 81.3207106,681.370317 C85.4231198,683.690037 90.1859169,684.289965 94.7285847,683.030117 C105.394849,680.090471 111.678539,669.011806 108.736811,658.35309 C107.115859,652.453801 103.273603,647.554391 97.9504769,644.534755 C92.6273507,641.515119 86.4437192,640.75521 80.5402522,642.395013 C66.5920607,646.23455 58.3872422,660.732803 62.2495104,674.651126 C64.390768,682.410192 69.4337296,688.869413 76.4578547,692.848934 C83.4619681,696.828454 91.6067513,697.828334 99.3713113,695.688592 C117.862171,690.589206 128.748564,671.411517 123.645567,652.913745 C120.783886,642.554993 114.059938,633.936032 104.714449,628.63667 C95.3689608,623.337309 84.5225909,621.99747 74.1565032,624.857126 C62.1494517,628.176726 52.1635872,635.955788 46.0199792,646.774485 C39.8763712,657.593182 38.3154545,670.171666 41.6374054,682.17022 C45.4796619,696.108541 54.524974,707.707144 67.1123663,714.826286 C75.3572083,719.505722 84.4825674,721.885435 93.7279971,721.885435 L94.2683144,721.885435 C88.9852117,723.465245 83.4219446,724.265149 77.7586186,724.265149 C62.289534,724.285146 47.8010252,718.285869 36.8946201,707.427177 Z" id="Shape" fill="#EB2F96" fill-rule="nonzero"></path>
        <polygon id="Shape" fill-opacity="0" fill="#FFFFFF" fill-rule="nonzero" transform="translate(278.000000, 455.000000) rotate(-21.000000) translate(-278.000000, -455.000000) " points="163 340 393 340 393 570 163 570"></polygon>
        <path d="M338.534247,354 L205.986301,354 C201.02137,354 197,357.995536 197,362.928571 L197,545.071429 C197,550.004464 201.02137,554 205.986301,554 L338.534247,554 C350.912877,554 361,543.977679 361,531.678571 L361,376.321429 C361,364.022321 350.912877,354 338.534247,354 Z M205.986301,545.071429 L205.986301,362.928571 L232.046575,362.928571 L232.046575,545.071429 L205.986301,545.071429 Z M352.013699,531.678571 C352.013699,539.066964 345.970411,545.071429 338.534247,545.071429 L241.032877,545.071429 L241.032877,362.928571 L338.534247,362.928571 C345.970411,362.928571 352.013699,368.933036 352.013699,376.321429 L352.013699,531.678571 Z" id="Shape" fill="#794BC4" fill-rule="nonzero" transform="translate(279.000000, 454.000000) rotate(-21.000000) translate(-279.000000, -454.000000) "></path>
        <path d="M206.257733,406.805746 C205.01598,406.805746 204,405.793879 204,404.557152 L204,378.248595 C204,377.011868 205.01598,376 206.257733,376 C207.499487,376 208.515467,377.011868 208.515467,378.248595 L208.515467,404.557152 C208.515467,405.793879 207.499487,406.805746 206.257733,406.805746 Z M206.257733,422.545909 C205.01598,422.545909 204,421.534041 204,420.297314 L204,416.024984 C204,414.788257 205.01598,413.77639 206.257733,413.77639 C207.499487,413.77639 208.515467,414.788257 208.515467,416.024984 L208.515467,420.297314 C208.515467,421.534041 207.499487,422.545909 206.257733,422.545909 Z M273.673652,484 C271.799733,484 269.948392,483.415365 268.367978,482.268582 C265.568389,480.244847 264.191172,476.871955 264.778182,473.476577 L266.629524,462.728295 L258.795189,455.105559 C256.311682,452.699563 255.431166,449.169269 256.514878,445.908807 C257.576013,442.625859 260.375602,440.28732 263.807357,439.770144 L274.644477,438.196127 L279.476027,428.437227 C280.966131,425.356652 284.014071,423.422861 287.445825,423.400375 L287.513557,423.400375 C290.96789,423.400375 294.060984,425.31168 295.596243,428.414741 L300.427792,438.196127 L311.264913,439.770144 C314.696667,440.264834 317.496257,442.625859 318.557391,445.908807 C319.618526,449.191755 318.73801,452.722049 316.277081,455.128045 L308.442746,462.728295 L310.294087,473.454091 C310.881098,476.849469 309.503881,480.222361 306.704291,482.246096 C303.904702,484.269831 300.269751,484.539663 297.199234,482.943161 L287.513557,477.883823 L277.827881,482.943161 C276.563551,483.662711 275.118601,484 273.673652,484 Z M265.13942,448.697064 L274.667055,457.961274 C275.728189,458.995628 276.224891,460.4797 275.953963,461.941287 L273.696229,475.005621 L285.481597,468.844472 C286.791083,468.147408 288.371496,468.147408 289.680982,468.844472 L301.46635,475.005621 L299.208616,461.941287 C298.960266,460.4797 299.43439,458.995628 300.495524,457.961274 L310.023159,448.697064 L296.837996,446.785759 C295.37047,446.583385 294.106139,445.661462 293.428819,444.334791 L287.558712,432.507183 L281.688605,444.334791 C281.033863,445.661462 279.769532,446.583385 278.279428,446.785759 L265.13942,448.697064 Z" id="Shape" fill="#794BC4" fill-rule="nonzero" transform="translate(261.500000, 430.000000) rotate(-21.000000) translate(-261.500000, -430.000000) "></path>
        <polygon id="Shape" fill-opacity="0" fill="#FFFFFF" fill-rule="nonzero" transform="translate(577.000000, 160.000000) rotate(31.000000) translate(-577.000000, -160.000000) " points="464 47 690 47 690 273 464 273"></polygon>
        <path d="M538.221017,122 C537.687048,122 537.130831,121.795469 536.708106,121.386406 C535.818158,120.52283 535.751412,119.091111 536.596862,118.182083 C538.087525,116.545832 539.667182,114.932308 541.246839,113.432411 C542.136786,112.568835 543.560702,112.637012 544.383904,113.54604 C545.229354,114.455068 545.162608,115.909513 544.272661,116.750364 C542.75975,118.182083 541.269087,119.704704 539.845171,121.272778 C539.422446,121.750017 538.821731,122 538.221017,122 Z M551.547982,109.978105 C550.858273,109.978105 550.168563,109.63722 549.745838,109.023626 C549.03388,108.000969 549.256367,106.591976 550.257558,105.842028 C556.998911,100.933277 564.318731,97.0017311 572.016777,94.138293 C573.173709,93.7065047 574.441885,94.3200986 574.86461,95.5018349 C575.287335,96.6835713 574.68662,97.9789361 573.529688,98.4107244 C566.209869,101.115083 559.246029,104.864823 552.838406,109.523591 C552.460179,109.864477 551.992956,109.978105 551.547982,109.978105 Z" id="Shape" fill="#13C2C2" fill-rule="nonzero" transform="translate(555.500000, 108.000000) rotate(2.000000) translate(-555.500000, -108.000000) "></path>
        <path d="M638.204323,57 L599.957854,57 C595.086114,57 591.140225,60.9380768 591.140225,65.8001717 L591.140225,68.2642198 C580.338628,68.7702297 569.867693,71.146276 559.925816,75.348358 C549.036043,79.9464477 539.248474,86.5245761 530.827638,94.9287401 C522.428846,103.310904 515.815624,113.079094 511.208412,123.969307 C506.424848,135.211526 504,147.17976 504,159.5 C504,171.82024 506.424848,183.788474 511.186368,195.052694 C515.79358,205.920906 522.384758,215.689096 530.805594,224.09326 C539.22643,232.497424 548.991955,239.075553 559.903772,243.673642 C569.845649,247.875724 580.316584,250.251771 591.11818,250.757781 L591.11818,253.199828 C591.11818,258.061923 595.06407,262 599.93581,262 L638.182278,262 C643.054019,262 646.999908,258.061923 646.999908,253.199828 L646.999908,65.8221721 C647.021952,60.9160764 643.076063,57 638.204323,57 Z M638.204323,253.177828 L599.979898,253.177828 L599.957854,253.177828 L599.957854,246.445697 C599.957854,244.025649 597.973887,242.045611 595.549039,242.045611 C573.460877,242.045611 552.673315,233.465443 537.066111,217.867139 C521.458907,202.268835 512.839674,181.54443 512.839674,159.478 C512.839674,137.433569 521.436863,116.687165 537.066111,101.110861 C552.695359,85.5125563 573.460877,76.9323889 595.549039,76.9323889 C597.973887,76.9323889 599.957854,74.9523503 599.957854,72.5323031 L599.957854,65.7781713 L638.182278,65.7781713 C638.182278,65.7781713 638.204323,65.8001717 638.204323,65.7781713 L638.204323,83.752522 L617.945819,83.752522 L617.945819,92.5526937 L638.204323,92.5526937 L638.204323,112.727087 L617.945819,112.727087 L617.945819,121.527259 L638.204323,121.527259 L638.204323,141.701653 L617.945819,141.701653 L617.945819,150.501824 L638.204323,150.501824 L638.204323,170.676218 L617.945819,170.676218 L617.945819,179.47639 L638.204323,179.47639 L638.204323,199.672784 L617.945819,199.672784 L617.945819,208.472956 L638.204323,208.472956 L638.204323,228.647349 L617.945819,228.647349 L617.945819,237.447521 L638.204323,237.447521 L638.204323,253.177828 Z" id="Shape" fill="#13C2C2" fill-rule="nonzero" transform="translate(575.500000, 159.500000) rotate(31.000000) translate(-575.500000, -159.500000) "></path>
        <path d="M596.550062,109 C569.227441,109 547,130.985628 547,157.988996 C547,171.083539 552.161928,183.385807 561.506799,192.651022 C570.873918,201.894229 583.311496,207 596.550062,207 C598.997528,207 601,205.019313 601,202.598473 L601,113.401527 C601,110.980687 598.997528,109 596.550062,109 Z M592.100124,197.954862 C571.763906,195.754098 555.899876,178.676173 555.899876,157.988996 C555.899876,137.323827 571.763906,120.245902 592.100124,118.045138 L592.100124,197.954862 Z" id="Shape" fill="#13C2C2" fill-rule="nonzero" transform="translate(574.000000, 158.000000) rotate(31.000000) translate(-574.000000, -158.000000) "></path>
        <polygon id="Shape" fill-opacity="0" fill="#FFFFFF" fill-rule="nonzero" points="253 604 578 604 578 929 253 929"></polygon>
        <path d="M462.876755,672.032787 C462.156006,672.032787 461.435257,671.803279 460.845554,671.344262 C459.436817,670.229508 459.174727,668.163934 460.288612,666.754098 C467.692668,657.377049 478.765991,652 490.723869,652 C492.525741,652 494,653.47541 494,655.278689 C494,657.081967 492.525741,658.557377 490.723869,658.557377 C480.797192,658.557377 471.591264,663.016393 465.464899,670.819672 C464.809672,671.606557 463.859594,672.032787 462.876755,672.032787 Z M455.276131,694 C453.474259,694 452,692.52459 452,690.721311 C452,687.967213 452.294852,685.180328 452.884555,682.393443 C453.277691,680.622951 455.014041,679.508197 456.783151,679.868852 C458.552262,680.262295 459.666147,682 459.305772,683.770492 C458.814353,686.098361 458.552262,688.42623 458.552262,690.721311 C458.552262,692.52459 457.078003,694 455.276131,694 Z" id="Shape" fill="#F45D22" fill-rule="nonzero"></path>
        <path d="M531.241629,646.719307 C520.429776,635.932657 506.056372,630 490.760781,630 C477.309564,630 464.939533,634.631914 455.177066,642.404647 L454.795471,642.594999 L309.535052,727.175021 C295.320646,728.126784 284,739.960373 284,754.427173 C284,768.576719 294.843652,780.251681 308.644664,781.615875 L380.511684,856.551362 L335.3245,856.551362 C323.59046,856.551362 314.05059,866.068994 314.05059,877.775681 C314.05059,889.482368 323.59046,899 335.3245,899 L455.367863,899 C467.101903,899 476.641773,889.482368 476.641773,877.775681 C476.641773,866.068994 467.101903,856.551362 455.367863,856.551362 L442.616237,856.551362 L442.616237,842.052836 C442.616237,838.563038 439.754276,835.707749 436.256324,835.707749 C432.758371,835.707749 429.896411,838.563038 429.896411,842.052836 L429.896411,856.551362 L398.128644,856.551362 L323.62226,778.824036 C332.557938,774.319023 338.727054,765.086921 338.727054,754.427173 C338.727054,745.068168 333.988918,736.787829 326.770417,731.870386 L436.924115,667.721547 C434.729945,673.781106 433.521561,680.316547 433.521561,687.137516 L433.521561,720.766482 C433.521561,724.25628 436.383522,727.11157 439.881474,727.11157 L457.021441,727.11157 C460.0106,742.974289 474.002409,755.029956 490.760781,755.029956 C507.519152,755.029956 521.510961,742.974289 524.50012,727.11157 L541.640087,727.11157 C545.138039,727.11157 548,724.25628 548,720.766482 L548,687.137516 C548,671.814129 542.053481,657.505956 531.241629,646.719307 Z M463.890147,877.775681 C463.890147,882.471046 460.042399,886.309824 455.336064,886.309824 L335.3245,886.309824 C330.618164,886.309824 326.770417,882.471046 326.770417,877.775681 C326.770417,873.080316 330.618164,869.241538 335.3245,869.241538 L455.336064,869.241538 C460.042399,869.209812 463.890147,873.048591 463.890147,877.775681 Z M312.269815,768.98915 C311.697422,768.893973 311.093231,768.925699 310.520838,768.98915 C302.857143,768.544994 296.719827,762.16818 296.719827,754.395448 C296.719827,746.337186 303.270537,739.77002 311.347627,739.77002 C319.424717,739.77002 325.975428,746.337186 325.975428,754.395448 C325.975428,762.136455 319.90171,768.544994 312.269815,768.98915 Z M490.760781,742.308055 C481.061913,742.308055 472.825825,735.899516 470.091062,727.079844 L511.430499,727.079844 C508.695736,735.899516 500.459648,742.308055 490.760781,742.308055 Z M535.280173,714.389669 L446.241388,714.389669 L446.241388,687.105791 C446.241388,662.613752 466.211515,642.690176 490.760781,642.690176 C515.310046,642.690176 535.280173,662.613752 535.280173,687.105791 L535.280173,714.389669 Z" id="Shape" fill="#F45D22" fill-rule="nonzero"></path>
        <polygon id="Shape" fill-opacity="0" fill="#FFFFFF" fill-rule="nonzero" points="731 -19 936 -19 936 186 731 186"></polygon>
        <path d="M860.043312,25 C859.513376,25 859.003822,24.8054996 858.596178,24.4359488 C857.801274,23.6773971 857.801274,22.4520444 858.596178,21.6934927 L859.533758,20.7987907 C860.328662,20.0402391 861.612739,20.0402391 862.407643,20.7987907 C863.202548,21.5573424 863.202548,22.7826951 862.407643,23.5412468 L861.470064,24.4359488 C861.082803,24.8054996 860.573248,25 860.043312,25 Z M879.956688,19.7484884 C879.426752,19.7484884 878.917197,19.553988 878.509554,19.1844372 C875.757962,16.5586814 871.416561,16.1502305 868.216561,18.211935 C867.768262,18.5019745 867.217343,18.609623 866.685662,18.5110699 C866.153981,18.4125168 865.685355,18.115884 865.383439,17.6867839 C865.0795,17.2589869 864.966693,16.7332628 865.069969,16.2258967 C865.173245,15.7185306 865.484094,15.2713359 865.933758,14.9832279 C870.764331,11.8712211 877.266242,12.4741724 881.403822,16.4225311 C882.198726,17.1810828 882.198726,18.4064355 881.403822,19.1649871 C880.975796,19.553988 880.466242,19.7484884 879.956688,19.7484884 Z" id="Shape" fill="#1890FF" fill-rule="nonzero"></path>
        <path d="M909.942256,27.2392146 L889.731443,7.02413762 C880.347852,-2.34137921 865.08949,-2.34137921 855.705898,7.02413762 L756.576674,106.174277 C755.91501,106.83608 755.514002,107.69843 755.41375,108.620943 L750.02019,162.587979 C749.899888,163.791258 750.320946,164.974481 751.183114,165.816776 C751.945029,166.578853 752.9676,167 754.010222,167 C754.150574,167 754.270877,167 754.41123,166.979945 L808.366882,161.585247 C809.2892,161.484974 810.151368,161.083881 810.813032,160.422078 L909.942256,61.2719385 C914.493699,56.7395899 917,50.7031433 917,44.2856585 C917,37.8280645 914.493699,31.7916179 909.942256,27.2392146 Z M765.078048,109.022036 L846.883718,27.1991053 L865.490498,45.8098112 L783.684828,127.632742 L765.078048,109.022036 Z M762.571746,117.866132 L799.123643,154.425741 L758.501513,158.496833 L762.571746,117.866132 Z M807.965873,151.918911 L789.339043,133.28815 L871.144714,51.4652196 L889.771544,70.0959801 L807.965873,151.918911 Z M904.26799,55.5964754 L895.425759,64.4405716 L852.537934,21.5436969 L861.380164,12.6996007 C867.615842,6.4626077 877.80145,6.4626077 884.057177,12.6996007 L904.26799,32.9146777 C907.295602,35.9429283 908.979836,39.9939656 908.979836,44.2656039 C908.979836,48.5372422 907.315652,52.5682248 904.26799,55.5964754 Z" id="Shape" fill="#1890FF" fill-rule="nonzero"></path>
        <polygon id="Shape" fill-opacity="0" fill="#FFFFFF" fill-rule="nonzero" transform="translate(629.500000, 493.500000) rotate(-34.000000) translate(-629.500000, -493.500000) " points="527 391 732 391 732 596 527 596"></polygon>
        <path d="M567.008032,544 C565.903614,544 565,543.097292 565,541.993982 C565,541.071214 565.060241,540.148445 565.200803,539.245737 C565.361446,538.142427 566.385542,537.400201 567.48996,537.560682 C568.594378,537.721163 569.337349,538.744233 569.176707,539.847543 C569.076305,540.549649 569.016064,541.271815 569.016064,541.993982 C569.016064,543.097292 568.11245,544 567.008032,544 Z M569.879518,534.852558 C569.477912,534.852558 569.076305,534.732197 568.73494,534.491474 C567.831325,533.849549 567.610442,532.605817 568.232932,531.703109 C571.606426,526.888666 577.128514,524 582.991968,524 C584.096386,524 585,524.902708 585,526.006018 C585,527.109328 584.096386,528.012036 582.991968,528.012036 C578.433735,528.012036 574.156627,530.258776 571.526104,533.98997 C571.144578,534.551655 570.502008,534.852558 569.879518,534.852558 Z" id="Shape" fill="#17BF63" fill-rule="nonzero" transform="translate(575.000000, 534.000000) rotate(-34.000000) translate(-575.000000, -534.000000) "></path>
        <path d="M717.860584,467.911588 L709.896588,438.202454 C706.583246,425.831961 693.808916,418.469523 681.453743,421.801575 L566.285171,452.647996 C553.910039,455.960096 546.544839,468.729636 549.878141,481.080176 L550.01786,481.618891 C543.291377,487.285375 539,495.7851 539,505.262493 C539,514.061505 542.69258,522.022515 548.620668,527.649094 L548.620668,541.795351 C548.620668,554.584844 559.039731,565 571.834021,565 L691.054451,565 C703.848741,565 714.267804,554.584844 714.267804,541.795351 L714.267804,511.028739 C714.267804,508.833974 712.471414,507.038258 710.275826,507.038258 L600.775863,507.038258 C600.815783,506.459638 600.835743,505.861066 600.835743,505.262493 C600.835743,504.643969 600.815783,504.025444 600.775863,503.40692 L703.210024,475.97236 L706.064289,486.606993 C706.543326,488.382757 708.160077,489.559949 709.916548,489.559949 C710.255866,489.559949 710.615144,489.520044 710.954462,489.420282 C713.09017,488.841663 714.347644,486.66685 713.768807,484.531943 L710.914542,473.89731 L715.02628,472.799927 C717.161988,472.24126 718.439421,470.046495 717.860584,467.911588 Z M546.983956,505.262493 C546.983956,494.20886 554.848154,484.950943 565.287177,482.796083 L565.307137,482.796083 C565.486776,482.756178 565.646455,482.736226 565.826094,482.696321 C565.885973,482.676369 565.965813,482.676369 566.025693,482.656416 C566.245251,482.616512 566.48477,482.576607 566.724289,482.556654 C566.864008,482.536702 566.983767,482.516749 567.123487,482.496797 C567.223286,482.476845 567.343045,482.476845 567.442845,482.456892 C567.642444,482.43694 567.842043,482.416987 568.061601,482.397035 C568.141441,482.397035 568.201321,482.377083 568.28116,482.377083 C568.500719,482.35713 568.720278,482.35713 568.939837,482.337178 L569.159395,482.337178 C569.398914,482.337178 569.658393,482.317225 569.897911,482.317225 L570.636427,482.317225 C570.776147,482.317225 570.915866,482.317225 571.055585,482.337178 L571.235224,482.337178 C571.354984,482.337178 571.494703,482.35713 571.614462,482.35713 C571.674342,482.35713 571.734221,482.35713 571.794101,482.377083 C571.91386,482.397035 572.05358,482.397035 572.173339,482.416987 C572.233219,482.416987 572.293098,482.43694 572.333018,482.43694 C572.472737,482.456892 572.612457,482.476845 572.752176,482.476845 C572.792096,482.476845 572.832015,482.496797 572.871935,482.496797 C573.031614,482.516749 573.211253,482.536702 573.370933,482.576607 L573.410852,482.576607 C581.534528,483.833608 588.280971,489.360425 591.235035,496.78272 C591.274955,496.902435 591.334835,497.022149 591.374754,497.141864 C591.374754,497.161816 591.394714,497.181769 591.394714,497.201721 C591.853792,498.458723 592.23303,499.775582 592.472548,501.132345 C592.472548,501.17225 592.492508,501.212155 592.512468,501.25206 C592.732027,502.548966 592.851786,503.865825 592.851786,505.222589 C592.851786,506.798829 592.692107,508.335164 592.392709,509.831595 C592.352789,509.931357 592.332829,510.031119 592.312869,510.150833 C591.354794,514.52041 589.099327,518.530844 585.905744,521.663372 C585.865824,521.703277 585.825905,521.723229 585.805945,521.763134 C585.626306,521.942706 585.446667,522.102325 585.247068,522.281897 C585.167228,522.361706 585.087389,522.421563 585.007549,522.501373 C584.84787,522.64104 584.688191,522.780707 584.508552,522.920374 C584.408752,523.020136 584.288993,523.099945 584.169234,523.179755 C584.069434,523.259565 583.989595,523.319422 583.889795,523.399231 C583.710156,523.538898 583.510557,523.678565 583.330918,523.818232 C583.251079,523.878089 583.171239,523.937946 583.07144,523.997804 C582.891801,524.117518 582.712162,524.257185 582.512563,524.376899 C582.412763,524.456709 582.293004,524.516566 582.193204,524.596376 C582.073445,524.676185 581.953686,524.736043 581.833926,524.815852 C581.654287,524.935567 581.454688,525.035329 581.275049,525.135091 C581.17525,525.194948 581.07545,525.254805 580.975651,525.29471 C580.776052,525.414425 580.556493,525.514187 580.356894,525.633901 C580.277055,525.673806 580.217175,525.713711 580.137336,525.733663 L579.538539,526.032949 C579.478659,526.052902 579.41878,526.092806 579.37886,526.112759 C579.139341,526.212521 578.899822,526.332235 578.660304,526.431997 C578.580464,526.45195 578.520584,526.491855 578.440745,526.511807 C578.201226,526.611569 577.961707,526.691379 577.742149,526.791141 C577.662309,526.831045 577.56251,526.850998 577.48267,526.890903 C577.283071,526.95076 577.103432,527.030569 576.903833,527.090427 C576.744154,527.130332 576.584475,527.190189 576.424796,527.230094 C576.324996,527.269998 576.205237,527.289951 576.105438,527.329856 C574.149368,527.868571 572.093499,528.167857 569.977751,528.167857 C557.2633,528.187809 546.983956,517.91232 546.983956,505.262493 Z M706.283848,515.01922 L706.283848,541.795351 C706.283848,550.195314 699.457565,557.019037 691.054451,557.019037 L571.834021,557.019037 C563.430907,557.019037 556.604624,550.195314 556.604624,541.795351 L556.604624,533.175911 C560.736321,535.151199 565.287177,536.188724 569.917871,536.188724 C573.031614,536.188724 576.105438,535.709867 579.059501,534.792056 C579.159301,534.772103 579.239141,534.732199 579.33894,534.712246 C579.458699,534.672341 579.578459,534.632437 579.718178,534.592532 C579.837937,534.552627 579.977656,534.512722 580.097416,534.452865 C580.177255,534.41296 580.277055,534.393008 580.356894,534.353103 C580.496614,534.313198 580.616373,534.253341 580.756092,534.213436 C580.835932,534.173531 580.915771,534.153579 581.015571,534.113674 C581.15529,534.053817 581.275049,534.013912 581.414769,533.954055 C581.494608,533.91415 581.594408,533.874245 581.674247,533.854293 C581.794007,533.794435 581.913766,533.754531 582.033525,533.694673 C582.153285,533.634816 582.273044,533.594911 582.392803,533.535054 C582.492603,533.495149 582.572442,533.455245 582.672242,533.41534 C585.087389,532.317957 587.362816,530.921289 589.418685,529.225334 C589.857803,528.866191 590.27696,528.507048 590.696118,528.127952 C591.175155,527.688999 591.654193,527.230094 592.09331,526.771188 C592.21307,526.651474 592.332829,526.511807 592.452588,526.392092 C592.532428,526.312283 592.612268,526.212521 592.692107,526.132711 C595.606251,522.960278 597.861719,519.189274 599.238951,515.01922 L706.283848,515.01922 Z M599.079272,495.006956 C599.079272,494.987004 599.059312,494.967051 599.059312,494.927147 C598.999433,494.78748 598.959513,494.627861 598.899633,494.488194 L598.719994,494.009336 C598.700034,493.989384 598.700034,493.949479 598.680074,493.929526 C594.688096,483.753799 585.546466,476.411313 574.668325,474.715358 C574.628406,474.715358 574.588486,474.695406 574.548566,474.695406 C574.348967,474.655501 574.129408,474.635549 573.929809,474.615596 C573.88989,474.615596 573.84997,474.595644 573.81005,474.595644 C573.331013,474.535787 572.832015,474.475929 572.333018,474.455977 C572.273139,474.455977 572.233219,474.455977 572.173339,474.436025 C571.97374,474.416072 571.794101,474.416072 571.594502,474.39612 C571.514663,474.39612 571.454783,474.39612 571.374943,474.376167 C571.195304,474.376167 571.015665,474.356215 570.816066,474.356215 L569.099516,474.356215 C568.939837,474.356215 568.780158,474.376167 568.620478,474.376167 C568.520679,474.376167 568.40092,474.376167 568.30112,474.39612 C568.121481,474.39612 567.921882,474.416072 567.742243,474.436025 C567.662404,474.436025 567.582564,474.436025 567.502725,474.455977 C567.283166,474.475929 567.083567,474.495882 566.864008,474.515834 C566.824088,474.515834 566.764209,474.515834 566.724289,474.535787 C566.48477,474.555739 566.245251,474.595644 566.005733,474.615596 L565.945853,474.615596 C562.91195,474.994692 559.957886,475.832693 557.163501,477.089695 C556.165506,469.627495 560.856081,462.364818 568.32108,460.369578 L683.489652,429.523157 C691.593368,427.348344 699.976522,432.176827 702.15215,440.297456 L709.078232,466.155776 L599.278871,495.545671 C599.218992,495.3661 599.139152,495.186528 599.079272,495.006956 Z" id="Shape" fill="#17BF63" fill-rule="nonzero" transform="translate(628.500000, 493.000000) rotate(-34.000000) translate(-628.500000, -493.000000) "></path>
        <polygon id="Shape" fill-opacity="0" fill="#FFFFFF" fill-rule="nonzero" points="162 20 367 20 367 225 162 225"></polygon>
        <path d="M336.111799,87.9483053 C339.029792,84.7090953 338.949847,79.7103146 335.831991,76.5910753 L333.393668,74.1516703 L343.586659,63.9541575 C346.804447,60.7349427 346.804447,55.5162156 343.586659,52.2970007 L333.713448,42.4194099 C332.15452,40.8597903 330.095935,40 327.897447,40 C325.698958,40 323.620387,40.8597903 322.081446,42.4194099 L311.888454,52.6169227 L309.490103,50.2175079 C307.931175,48.6578883 305.87259,47.798098 303.674102,47.798098 C301.475613,47.798098 299.397043,48.6578883 297.858101,50.2175079 L191.311359,156.791514 C190.751743,157.351378 190.372004,158.051207 190.212114,158.831017 L182.077707,199.20117 C181.817886,200.520849 182.217611,201.860522 183.156965,202.820288 C183.916443,203.580102 184.935742,204 185.995014,204 C186.254835,204 186.514657,203.980005 186.774478,203.92002 L227.226664,195.88198 C228.006129,195.722019 228.705648,195.342112 229.265263,194.782248 L330.475674,93.5669349 L337.271002,100.365277 C337.370933,100.465252 337.370933,100.605218 337.271002,100.705194 L291.18269,146.813948 C289.623762,148.373567 289.623762,150.912948 291.18269,152.472568 C291.962155,153.252377 292.981454,153.65228 294.000753,153.65228 C295.020052,153.65228 296.039351,153.252377 296.818815,152.472568 L342.907127,106.363814 C346.124914,103.144599 346.124914,97.9258717 342.907127,94.7066569 L336.111799,87.9483053 Z M317.544565,58.2555474 L327.737557,48.0580346 C327.757543,48.0380395 327.817502,47.9780541 327.917433,47.9780541 C328.017364,47.9780541 328.077323,48.0380395 328.097309,48.0580346 L337.970521,57.9356255 C338.070452,58.0356011 338.070452,58.1755669 337.970521,58.2755426 L327.777529,68.4730554 L324.819563,65.5137771 L317.544565,58.2555474 Z M303.494226,55.8561327 C303.514212,55.8361375 303.574171,55.7761522 303.674102,55.7761522 C303.774033,55.7761522 303.833992,55.8361375 303.853978,55.8561327 L330.195866,82.209705 C330.295798,82.3096806 330.295798,82.4496464 330.195866,82.549622 L327.977392,84.7690807 C327.857474,84.8690563 327.737557,84.9690319 327.637625,85.0690076 C327.537694,85.1689832 327.437763,85.2889539 327.337831,85.4089247 L226.467187,186.324311 L199.785532,159.630822 L303.494226,55.8561327 Z M196.567744,167.748842 L218.33278,189.523531 L191.09151,194.942209 L196.567744,167.748842 Z" id="Shape" fill="#2F54EB" fill-rule="nonzero"></path>
        <path d="M274.30231,97.6887844 C273.785522,97.6887844 273.288611,97.4899933 272.891082,97.1122901 C272.115901,96.3370047 272.115901,95.0846206 272.891082,94.3093351 L294.616035,72.5814641 C295.391217,71.8061786 296.643433,71.8061786 297.418614,72.5814641 C298.193795,73.3567495 298.193795,74.6091336 297.418614,75.3844191 L275.693661,97.1122901 C275.316009,97.4899933 274.819098,97.6887844 274.30231,97.6887844 Z M262.992613,109 C262.475826,109 261.978915,108.801209 261.581386,108.423506 C260.806205,107.64822 260.806205,106.395836 261.581386,105.620551 L266.053586,101.14775 C266.828767,100.372465 268.080983,100.372465 268.856164,101.14775 C269.631346,101.923036 269.631346,103.17542 268.856164,103.950705 L264.383965,108.423506 C264.006312,108.801209 263.509401,109 262.992613,109 Z" id="Shape" fill="#2F54EB" fill-rule="nonzero"></path>
        <polygon id="Shape" fill-opacity="0" fill="#FFFFFF" fill-rule="nonzero" transform="translate(384.375558, 205.375558) rotate(-70.000000) translate(-384.375558, -205.375558) " points="281.875558 102.875558 486.875558 102.875558 486.875558 307.875558 281.875558 307.875558"></polygon>
        <path d="M467.396932,170.961881 L459.787922,163.341683 L462.190767,160.935305 C465.314466,157.807013 465.314466,152.713512 462.190767,149.58522 L436.700583,124.07761 C433.576884,120.949318 428.490861,120.949318 425.367162,124.07761 L393.949958,155.541007 L341.828237,207.739364 C337.823495,206.676547 333.358207,207.719311 330.234508,210.847603 C326.049552,215.078818 325.629054,221.656252 328.973014,226.34869 L303.562924,236.696117 L299.237803,282.517571 C299.177731,282.778262 299.157708,283.038953 299.157708,283.299644 L298.73721,287.731391 L349.737603,282.958741 L360.049815,257.491236 C362.132281,258.97517 364.575173,259.737189 367.03809,259.737189 C370.121742,259.737189 373.185369,258.574107 375.528144,256.227888 L375.548167,256.207835 C378.671866,253.05949 379.693076,248.60769 378.631819,244.597059 L430.773564,192.398702 L454.121212,168.996672 L461.730222,176.616871 L423.084459,215.319456 C421.522609,216.883602 421.522609,219.430352 423.084459,220.994498 C423.865383,221.776571 424.886593,222.177634 425.907802,222.177634 C426.929011,222.177634 427.950221,221.776571 428.731145,220.994498 L467.376909,182.291913 C470.520631,179.163621 470.520631,174.090173 467.396932,170.961881 Z M344.150988,275.418755 L313.835088,278.24625 L323.326328,268.741055 C324.908201,269.503075 326.670287,269.924191 328.532493,269.924191 C335.160341,269.924191 340.54672,264.529893 340.54672,257.892299 C340.54672,251.254706 335.160341,245.860408 328.532493,245.860408 C321.904644,245.860408 316.518266,251.254706 316.518266,257.892299 C316.518266,259.737189 316.938764,261.481814 317.679641,263.04596 L308.208425,272.531101 L311.051792,242.270893 L334.94008,232.565167 L353.842464,251.495344 L344.150988,275.418755 Z M324.52775,257.912353 C324.52775,255.706506 326.329884,253.901722 328.532493,253.901722 C330.735101,253.901722 332.537235,255.706506 332.537235,257.912353 C332.537235,260.118199 330.735101,261.922983 328.532493,261.922983 C326.329884,261.922983 324.52775,260.118199 324.52775,257.912353 Z M369.901481,250.552845 C368.319608,252.116991 365.79662,252.116991 364.23477,250.552845 L338.724562,225.005129 L336.862357,223.140185 L335.921242,222.197687 C334.359393,220.633541 334.359393,218.086791 335.921242,216.522645 C336.702167,215.740572 337.723376,215.359562 338.744586,215.359562 C339.6857,215.359562 340.646838,215.700466 341.407739,216.36222 L370.06167,245.058282 C371.443307,246.622427 371.383235,249.028806 369.901481,250.552845 Z M374.146508,237.778987 L348.656323,212.251323 L399.616669,161.216049 L425.106854,186.743713 L374.146508,237.778987 Z M431.053896,129.732599 L456.544081,155.24021 L451.698343,160.093073 C451.558177,160.213391 451.418011,160.313657 451.277845,160.454029 C451.137679,160.594401 451.017536,160.734773 450.917418,160.875146 L430.773564,181.068671 L405.283379,155.541007 L431.053896,129.732599 Z" id="Shape" fill="#FA541C" fill-rule="nonzero" transform="translate(384.237210, 204.731391) rotate(-70.000000) translate(-384.237210, -204.731391) "></path>
        <path d="M343.103827,150.813067 C342.57908,150.813067 342.074515,150.611192 341.670862,150.227631 C340.883741,149.44032 340.883741,148.16851 341.670862,147.3812 L349.521896,139.548467 C350.309017,138.761156 351.580521,138.761156 352.367643,139.548467 C353.154764,140.335778 353.154764,141.607587 352.367643,142.394898 L344.51661,150.227631 C344.13314,150.611192 343.628575,150.813067 343.103827,150.813067 Z M333.98129,159.957984 C333.456542,159.957984 332.951977,159.756109 332.548325,159.372548 C331.761204,158.585237 331.761204,157.313427 332.548325,156.526117 L335.111516,153.96231 C335.898638,153.174999 337.170142,153.174999 337.957263,153.96231 C338.744385,154.749621 338.744385,156.02143 337.957263,156.808741 L335.394072,159.372548 C335.010603,159.756109 334.506038,159.957984 333.98129,159.957984 Z" id="Shape" fill="#FA541C" fill-rule="nonzero" transform="translate(342.457984, 149.457984) rotate(-70.000000) translate(-342.457984, -149.457984) "></path>
        <polygon id="Shape" fill-opacity="0" fill="#FFFFFF" fill-rule="nonzero" transform="translate(846.081782, 775.081782) rotate(-45.000000) translate(-846.081782, -775.081782) " points="692.581782 621.581782 999.581782 621.581782 999.581782 928.581782 692.581782 928.581782"></polygon>
        <polygon id="Shape" fill-opacity="0" fill="#FFFFFF" fill-rule="nonzero" transform="translate(855.948268, 799.948268) rotate(-45.000000) translate(-855.948268, -799.948268) " points="732.948268 676.948268 978.948268 676.948268 978.948268 922.948268 732.948268 922.948268"></polygon>
        <path d="M815.227471,788.834524 C814.606857,788.834524 814.010111,788.595783 813.532715,788.142174 C812.601793,787.211084 812.601793,785.707014 813.532715,784.775924 L817.137055,781.170932 C818.067978,780.239841 819.571775,780.239841 820.502697,781.170932 C821.43362,782.102022 821.43362,783.606092 820.502697,784.537182 L816.898357,788.142174 C816.444831,788.595783 815.848086,788.834524 815.227471,788.834524 Z M827.090762,776.992961 C826.470148,776.992961 825.873403,776.75422 825.396007,776.300612 C824.465084,775.369521 824.465084,773.865452 825.396007,772.934361 L841.77069,756.532842 C842.701612,755.601751 844.20541,755.601751 845.136332,756.532842 C846.067254,757.463932 846.067254,758.968002 845.136332,759.899092 L828.761649,776.300612 C828.308122,776.75422 827.711377,776.992961 827.090762,776.992961 Z" id="Shape" fill="#E0245E" fill-rule="nonzero" transform="translate(829.334524, 772.334524) rotate(-45.000000) translate(-829.334524, -772.334524) "></path>
        <path d="M834.106602,729.606602 C834.106602,732.286094 835.536093,734.762046 837.856602,736.101792 C840.17711,737.441538 843.036094,737.441538 845.356602,736.101792 C847.67711,734.762046 849.106602,732.286094 849.106602,729.606602 C849.106602,726.92711 847.67711,724.451157 845.356602,723.111411 C843.036094,721.771665 840.17711,721.771665 837.856602,723.111411 C835.536093,724.451157 834.106602,726.92711 834.106602,729.606602 Z" id="Shape" fill="#E0245E" fill-rule="nonzero" transform="translate(841.606602, 729.606602) rotate(-45.000000) translate(-841.606602, -729.606602) "></path>
        <path d="M949.750981,752.930951 L904.183527,707.363397 C902.360828,705.564678 899.962541,704.557395 897.396374,704.557395 C894.830207,704.557395 892.43192,705.564678 890.609222,707.363397 L764.363391,833.609505 C760.622063,837.350841 760.622063,843.442503 764.363391,847.183839 L809.930845,892.751393 C811.801509,894.622061 814.247762,895.557395 816.717998,895.557395 C819.16425,895.557395 821.634486,894.622061 823.50515,892.751393 L949.750981,766.505286 C951.573679,764.682584 952.556977,762.284291 952.556977,759.718118 C952.580959,757.151946 951.573679,754.72967 949.750981,752.930951 Z M935.385241,767.296722 L915.91115,747.822589 L909.123998,754.609756 L928.598089,774.083889 L920.491879,782.190117 L901.017788,762.715984 L894.230635,769.503151 L913.704726,788.977285 L905.574533,797.107496 L886.124425,777.657345 L879.337273,784.444512 L898.787381,803.894663 L890.68117,812.000891 L871.231062,792.55074 L864.44391,799.337908 L883.894018,818.788058 L875.787808,826.894286 L856.3377,807.444136 L849.550547,814.231303 L869.000655,833.681453 L860.870462,841.811664 L841.396371,822.337531 L834.609219,829.124698 L854.08331,848.598832 L845.9771,856.70506 L826.503009,837.230926 L819.715856,844.018093 L839.189947,863.492227 L831.059754,871.622438 L811.609646,852.172287 L804.822494,858.959454 L824.272602,878.409605 L816.717998,885.964226 L771.150543,840.396672 L897.396374,714.150564 L942.963828,759.718118 L935.385241,767.296722 Z" id="Shape" fill="#E0245E" fill-rule="nonzero" transform="translate(857.057395, 800.057395) rotate(-45.000000) translate(-857.057395, -800.057395) "></path>
    </g>
</svg>