<svg xmlns="http://www.w3.org/2000/svg" xmlns:xlink="http://www.w3.org/1999/xlink" t="1598604111265" viewBox="0 0 1185 1024" version="1.1" p-id="70704" width="231.4453125" height="200">
  <defs><style type="text/css"/></defs>
  <path d="M215.600052 431.200104a26.732803 26.732803 0 0 0 0-53.465605h-80.198407a26.732803 26.732803 0 0 0-26.732803 26.732803v215.332724a26.732803 26.732803 0 0 0 26.732803 26.732803h80.198407a26.732803 26.732803 0 0 0 0-53.465605h-53.465605v-53.465605h53.465605a26.732803 26.732803 0 0 0 0-53.465605h-53.465605v-53.465605zM404.199974 431.200104h-80.198408a26.732803 26.732803 0 0 0 0 53.465605h80.198408a26.732803 26.732803 0 1 0 0-53.465605zM404.199974 538.933299h-80.198408a26.732803 26.732803 0 0 0 0 53.465605h80.198408a26.732803 26.732803 0 1 0 0-53.465605zM835.400078 431.200104a26.732803 26.732803 0 0 1 26.732803 26.732803 26.732803 26.732803 0 1 0 53.465605 0 80.198408 80.198408 0 1 0-161.599791 0v107.866858a80.198408 80.198408 0 0 0 161.599791 0 26.732803 26.732803 0 1 0-53.465605 0 26.732803 26.732803 0 0 1-53.465605 0v-107.733194a26.732803 26.732803 0 0 1 26.732802-26.866467zM683.958752 379.338468a26.732803 26.732803 0 0 0-29.272419 5.747552l-61.886437 61.886438-61.752774-61.886438a26.732803 26.732803 0 0 0-45.980421 19.113954v215.600052a26.732803 26.732803 0 0 0 53.465605 0V469.294348l34.886308 34.752643a26.732803 26.732803 0 0 0 38.094243 0l34.752644-34.752643v150.505678a26.732803 26.732803 0 0 0 53.465605 0V404.199974a26.732803 26.732803 0 0 0-15.772354-24.861506zM1050.866467 458.066571l16.173345-21.519906a53.465605 53.465605 0 0 0-43.039812-86.213288h-26.732803a26.732803 26.732803 0 0 0 0 53.465605h26.732803L975.747291 468.893356a26.732803 26.732803 0 0 0 21.519906 43.039812h53.465606a26.732803 26.732803 0 1 0 0-53.465605z" fill="#1282df" p-id="70705"/>
  <path d="M1130.797546 112.411435a25.797154 25.797154 0 0 0-6.950529-23.658531l-80.198407-80.198407a26.732803 26.732803 0 0 0-38.094244 0l-100.515337 99.178697H80.866728a81.000392 81.000392 0 0 0-80.198408 80.198408v755.20167a80.866728 80.866728 0 0 0 80.866728 80.198408h1023.33168a80.198408 80.198408 0 0 0 80.198407-80.198408V188.599922a80.198408 80.198408 0 0 0-54.267589-76.188487zM862.266545 227.228821l161.733455-162.134447 42.772484 42.63882-161.733455 161.733455h-42.772484z m269.466649 716.439107a26.732803 26.732803 0 0 1-26.732802 26.732803H80.866728a26.732803 26.732803 0 0 1-26.732803-26.732803v-26.732802h1077.599269z m0-80.198407H53.465605V188.599922a26.732803 26.732803 0 0 1 26.732803-26.732803h770.974024l-34.886307 34.752643a26.732803 26.732803 0 0 0-7.886177 19.113954v80.866728a26.732803 26.732803 0 0 0 26.732802 26.732802h80.198408A26.732803 26.732803 0 0 0 935.648088 315.44707l153.446286-153.713615h15.772354a26.732803 26.732803 0 0 1 26.732802 26.732803z" fill="#1282df" p-id="70706"/>
</svg>